<svg width="682" height="729.04" data-name="Layer 1" version="1.1" viewBox="0 0 682 729.04" xmlns="http://www.w3.org/2000/svg" xmlns:xlink="http://www.w3.org/1999/xlink">
 <defs>
  <linearGradient id="f0fb461d-1e13-41a3-9bae-441dc4ab432e" x1="133.13" x2="133.13" y1="136.42" y2="112.55" gradientUnits="userSpaceOnUse">
   <stop stop-color="gray" stop-opacity=".25" offset="0"/>
   <stop stop-color="gray" stop-opacity=".12" offset=".54"/>
   <stop stop-color="gray" stop-opacity=".1" offset="1"/>
  </linearGradient>
  <linearGradient id="237fef21-1688-4881-b2bf-1fb5e7fb841a" x1="513.83" x2="513.83" y1="188.41" y2="161.09" xlink:href="#f0fb461d-1e13-41a3-9bae-441dc4ab432e"/>
  <linearGradient id="294d64f1-65de-4cb7-bc36-babf1fd7cdb8" x1="602.48" x2="605.64" y1="555.48" y2="555.48" xlink:href="#f0fb461d-1e13-41a3-9bae-441dc4ab432e"/>
  <linearGradient id="9d28fa30-49df-43d8-bb66-05ac5ec48c44" x1="566.56" x2="569.72" y1="555.48" y2="555.48" xlink:href="#f0fb461d-1e13-41a3-9bae-441dc4ab432e"/>
  <linearGradient id="a250eb33-caad-4b62-b507-377e200fabd4" x1="827.73" x2="839.18" y1="805.18" y2="805.18" xlink:href="#f0fb461d-1e13-41a3-9bae-441dc4ab432e"/>
  <linearGradient id="fafa91f3-3852-4c4c-bdd1-6ec8b3cc9d69" x1="851.02" x2="862.47" y1="805.18" y2="805.18" xlink:href="#f0fb461d-1e13-41a3-9bae-441dc4ab432e"/>
 </defs>
 <title>bitcoin2</title>
 <polygon points="181.79 145.78 169.18 153.07 182.43 172.61 185.52 170.36 187.44 154.85"/>
 <g opacity=".05">
  <path transform="translate(-259 -85.48)" d="m467.24 140.23c-2.54 3.84-4.91 8-5.64 10.92l2-1.38c-0.25-2.17 1.4-5.77 3.64-9.54z"/>
  <path transform="translate(-259 -85.48)" d="m478.61 192.49 1.39-29.23c-31 19.67-76.36 37.62-76.36 37.62l-2.19 3.47s45.41-17.95 76.36-37.62l-1.3 27.53z"/>
 </g>
 <path transform="translate(-259 -85.48)" d="M930.79,556C885.24,738.68,700.2,849.87,517.48,804.31S223.64,573.7,269.22,391,499.79,97.1,682.45,142.65,976.34,373.27,930.79,556Z" fill="#f7931a"/>
 <path d="m474.90884 312.37181c-4.07112-45.70419-43.3875-61.28616-93.11927-65.95297l0.44597-63.3512-38.56469-0.26936-0.44984 61.63395c-10.14021-0.0675-20.50018 0.0626-30.81893 0.19228l0.41211-62.08777-38.48218-0.26874-0.46042 63.33406c-8.34678 0.11574-16.55513 0.20868-24.54165 0.15517l-0.0445-0.18469-53.16209-0.43144-0.31389 41.22986s28.47716-0.34583 28.00746 0.1793c15.61407 0.11156 20.6357 9.21612 22.0677 17.04901 0.52841 57.92638-0.65116 115.75363-1.27508 173.51501-0.71645 4.90604-3.65986 12.72745-14.57871 12.67343 0.48659 0.43785-28.03396-0.20374-28.03396-0.20374l-7.83035 46.01134 50.13317 0.37201c9.33976 0.0755 18.5304 0.30121 27.54971 0.41352l-0.43894 64.01822 38.5258 0.27882 0.44628-63.39242c10.57504 0.29155 20.80914 0.44956 30.80386 0.51104l-0.4538 63.10615 38.56463 0.26933 0.46014-63.93072c64.85897-3.27285 110.34851-19.28843 116.42179-80.13251 4.88677-48.99278-18.01613-71.02511-54.75516-80.12128 22.37258-11.2049 36.52415-31.17242 33.48507-64.61551zm-54.90409 136.62098c-0.30882 47.88528-82.26182 41.86716-108.4039 41.65837l0.60514-84.89254c26.14915 0.23817 108.19365-6.71932 107.79876 43.23417zm-17.10316-119.9002c-0.31477 43.56554-68.65968 38.00028-90.42434 37.85395l0.53073-77.03479c21.78617 0.19215 90.2104-6.24739 89.89361 39.18084z" fill="#fff"/>
 <path transform="translate(-259 -85.48)" d="m545.18 102.24a13.53 13.53 0 0 0 3.64 13.35l7.85-5.71-7.61-10.47z" opacity=".05"/>
 <polygon points="265.03 54.71 268.66 51.6 268.7 56.51 267.91 54.62" opacity=".05"/>
 <path transform="translate(-259 -85.48)" d="m504.91 106.1s-3.82 10.31-2.2 13.83" opacity=".05"/>
 <g opacity=".5">
  <path transform="translate(-259 -85.48)" d="m506.66 161.09 3.65 13.82s4.71 13 8 13.49 3.34-10.07 1-13.21c-1.23-1.65-1.49-8.23-1.47-14.1z" fill="url(#237fef21-1688-4881-b2bf-1fb5e7fb841a)"/>
 </g>
 <g opacity=".7">
  <ellipse cx="604.06" cy="555.47998" rx="1.58" ry="2.96" fill="url(#294d64f1-65de-4cb7-bc36-babf1fd7cdb8)"/>
  <ellipse cx="568.14001" cy="555.47998" rx="1.58" ry="2.96" fill="url(#9d28fa30-49df-43d8-bb66-05ac5ec48c44)"/>
  <path transform="translate(-259,-85.48)" d="m839.18 808.34h-11.45v-0.59a5.72 5.72 0 0 1 5.72-5.72 5.72 5.72 0 0 1 5.72 5.72z" fill="url(#a250eb33-caad-4b62-b507-377e200fabd4)"/>
  <path transform="translate(-259,-85.48)" d="m862.47 808.34h-11.47v-0.59a5.72 5.72 0 0 1 5.72-5.72 5.72 5.72 0 0 1 5.72 5.72z" fill="url(#fafa91f3-3852-4c4c-bdd1-6ec8b3cc9d69)"/>
 </g>
</svg>
