<?xml version="1.0" encoding="UTF-8" standalone="no"?>
<svg
   xmlns:dc="http://purl.org/dc/elements/1.1/"
   xmlns:cc="http://creativecommons.org/ns#"
   xmlns:rdf="http://www.w3.org/1999/02/22-rdf-syntax-ns#"
   xmlns:svg="http://www.w3.org/2000/svg"
   xmlns="http://www.w3.org/2000/svg"
   xmlns:sodipodi="http://sodipodi.sourceforge.net/DTD/sodipodi-0.dtd"
   xmlns:inkscape="http://www.inkscape.org/namespaces/inkscape"
   width="24"
   height="24"
   version="1.1"
   viewBox="0 0 24 24"
   id="svg26"
   sodipodi:docname="logo.52262924.svg"
   inkscape:version="0.92.4 (5da689c313, 2019-01-14)">
  <metadata
     id="metadata32">
    <rdf:RDF>
      <cc:Work
         rdf:about="">
        <dc:format>image/svg+xml</dc:format>
        <dc:type
           rdf:resource="http://purl.org/dc/dcmitype/StillImage" />
      </cc:Work>
    </rdf:RDF>
  </metadata>
  <defs
     id="defs30" />
  <sodipodi:namedview
     pagecolor="#ffffff"
     bordercolor="#666666"
     borderopacity="1"
     objecttolerance="10"
     gridtolerance="10"
     guidetolerance="10"
     inkscape:pageopacity="0"
     inkscape:pageshadow="2"
     inkscape:window-width="1128"
     inkscape:window-height="759"
     id="namedview28"
     showgrid="false"
     inkscape:zoom="9.8333333"
     inkscape:cx="-2.1355932"
     inkscape:cy="12"
     inkscape:window-x="0"
     inkscape:window-y="27"
     inkscape:window-maximized="0"
     inkscape:current-layer="svg26" />
  <path
     d="M0 0h24v24H0V0z"
     fill="none"
     id="path2" />
  <g
     transform="matrix(1.1561124,0,0,1.1561124,-1.583716,-0.13918025)"
     id="g12">
    <path
       d="M 9.3149933,4 C 10.123031,2.9598677 11.568043,2.5634307 12.792095,3.0396695 c 1.480546,0.5721178 2.206991,2.0896429 1.898152,3.5043513 -0.06611,0.2834883 0.05278,0.5769743 0.306651,0.7215311 l 0.0076,0.00436 c 0.378901,0.2157605 0.864781,0.00573 0.962026,-0.4205824 C 16.416679,4.8427523 15.398844,2.6826323 13.319745,1.8399267 11.532872,1.1184643 9.4277923,1.6959924 8.2592293,3.228269 7.4226167,4.3273934 7.1871899,5.648429 7.4637444,6.8545805 7.5617351,7.2816798 8.0482526,7.4934883 8.4254084,7.2717235 8.6793736,7.1253006 8.7930398,6.8287604 8.7304123,6.5422201 8.5398503,5.6961248 8.7109784,4.7699847 9.3149903,4.0000287 Z"
       id="path4"
       inkscape:connector-curvature="0"
       style="fill:#f5f5f5;fill-opacity:0.98206276" />
    <path
       d="m 5.4989256,13 c -1.040132,-0.808038 -1.436569,-2.25305 -0.96033,-3.4771017 0.572117,-1.480546 2.089643,-2.206991 3.504351,-1.898152 0.283489,0.06611 0.576975,-0.05278 0.721532,-0.306651 l 0.0044,-0.0076 c 0.21576,-0.378901 0.0057,-0.864781 -0.420583,-0.962026 -2.006617,-0.450155 -4.166738,0.56768 -5.0094431,2.646779 -0.7214623,1.7868727 -0.1439343,3.8919527 1.3883421,5.0605157 1.099125,0.836613 2.42016,1.07204 3.626312,0.795485 0.427099,-0.09799 0.638908,-0.584508 0.417143,-0.961664 -0.146423,-0.253965 -0.442963,-0.367631 -0.729503,-0.305004 -0.846096,0.190562 -1.772236,0.01943 -2.542192,-0.584578 z"
       id="path6"
       inkscape:connector-curvature="0"
       style="fill:#f5f5f5;fill-opacity:0.98206276" />
    <path
       d="m 18.000028,8.000003 c 1.040132,0.808038 1.436569,2.25305 0.96033,3.477102 -0.572117,1.480546 -2.089642,2.206991 -3.50435,1.898152 -0.283489,-0.06611 -0.576975,0.05278 -0.721532,0.306651 l -0.0044,0.0076 c -0.21576,0.378901 -0.0057,0.864781 0.420583,0.962026 2.006617,0.450155 4.166737,-0.56768 5.009442,-2.646779 0.721463,-1.786873 0.143935,-3.891953 -1.388342,-5.0605159 -1.099124,-0.8366126 -2.42016,-1.0720394 -3.626311,-0.7954849 -0.427099,0.097991 -0.638908,0.5845082 -0.417143,0.961664 0.146423,0.2539652 0.442963,0.3676314 0.729503,0.3050039 C 16.303904,7.2248601 17.230044,7.3959881 18,8 Z"
       id="path8"
       inkscape:connector-curvature="0"
       style="fill:#f5f5f5;fill-opacity:0.98206276" />
    <path
       d="m 14.248699,17 c -0.808038,1.040132 -2.25305,1.436569 -3.477102,0.96033 -1.480546,-0.572117 -2.2069912,-2.089642 -1.8981522,-3.50435 0.06611,-0.283489 -0.05278,-0.576975 -0.306651,-0.721532 l -0.0076,-0.0044 c -0.378901,-0.21576 -0.864781,-0.0057 -0.962026,0.420583 -0.450155,2.006617 0.56768,4.166737 2.6467792,5.009442 1.786873,0.721463 3.891953,0.143935 5.060515,-1.388342 0.836613,-1.099124 1.07204,-2.42016 0.795485,-3.626311 -0.09799,-0.427099 -0.584508,-0.638908 -0.961664,-0.417143 -0.253965,0.146423 -0.367631,0.442963 -0.305004,0.729503 0.190562,0.846096 0.01943,1.772236 -0.584577,2.542192 z"
       id="path10"
       inkscape:connector-curvature="0"
       style="fill:#f5f5f5;fill-opacity:0.98206276" />
  </g>
  <g
     transform="matrix(0.48263889,0,0,0.48263889,3.8645833,6.2430555)"
     id="g18">
    <path
       d="M 0,0 H 24 V 24 H 0 Z"
       id="path14"
       inkscape:connector-curvature="0"
       style="fill:none" />
    <path
       d="M 12.65,10 C 11.7,7.31 8.9,5.5 5.77,6.12 3.48,6.58 1.62,8.41 1.14,10.7 0.32,14.57 3.26,18 7,18 c 2.61,0 4.83,-1.67 5.65,-4 H 17 v 2 c 0,1.1 0.9,2 2,2 1.1,0 2,-0.9 2,-2 v -2 c 1.1,0 2,-0.9 2,-2 0,-1.1 -0.9,-2 -2,-2 z M 7,14 c -1.1,0 -2,-0.9 -2,-2 0,-1.1 0.9,-2 2,-2 1.1,0 2,0.9 2,2 0,1.1 -0.9,2 -2,2 z"
       id="path16"
       inkscape:connector-curvature="0"
       style="fill:#f5f5f5;fill-opacity:0.98206276" />
  </g>
  <g
     transform="matrix(-0.48263889,0,0,0.48263889,20.378472,6.2430555)"
     id="g24">
    <path
       d="M 0,0 H 24 V 24 H 0 Z"
       id="path20"
       inkscape:connector-curvature="0"
       style="fill:none" />
    <path
       d="M 12.65,10 C 11.7,7.31 8.9,5.5 5.77,6.12 3.48,6.58 1.62,8.41 1.14,10.7 0.32,14.57 3.26,18 7,18 c 2.61,0 4.83,-1.67 5.65,-4 H 17 v 2 c 0,1.1 0.9,2 2,2 1.1,0 2,-0.9 2,-2 v -2 c 1.1,0 2,-0.9 2,-2 0,-1.1 -0.9,-2 -2,-2 z M 7,14 c -1.1,0 -2,-0.9 -2,-2 0,-1.1 0.9,-2 2,-2 1.1,0 2,0.9 2,2 0,1.1 -0.9,2 -2,2 z"
       id="path22"
       inkscape:connector-curvature="0"
       style="fill:#f5f5f5;fill-opacity:0.98206276" />
  </g>
</svg>
