<?xml version="1.0" encoding="UTF-8" standalone="no"?>
<!-- Generator: Adobe Illustrator 23.1.1, SVG Export Plug-In . SVG Version: 6.00 Build 0)  -->

<svg
   xmlns:dc="http://purl.org/dc/elements/1.1/"
   xmlns:cc="http://creativecommons.org/ns#"
   xmlns:rdf="http://www.w3.org/1999/02/22-rdf-syntax-ns#"
   xmlns:svg="http://www.w3.org/2000/svg"
   xmlns="http://www.w3.org/2000/svg"
   xmlns:sodipodi="http://sodipodi.sourceforge.net/DTD/sodipodi-0.dtd"
   xmlns:inkscape="http://www.inkscape.org/namespaces/inkscape"
   version="1.1"
   id="Layer_1"
   x="0px"
   y="0px"
   viewBox="0 0 1000 1000"
   style="enable-background:new 0 0 1000 1000;"
   xml:space="preserve"
   sodipodi:docname="small.svg"
   inkscape:version="0.92.4 (5da689c313, 2019-01-14)"><metadata
   id="metadata141"><rdf:RDF><cc:Work
       rdf:about=""><dc:format>image/svg+xml</dc:format><dc:type
         rdf:resource="http://purl.org/dc/dcmitype/StillImage" /></cc:Work></rdf:RDF></metadata><defs
   id="defs139" /><sodipodi:namedview
   pagecolor="#ffffff"
   bordercolor="#666666"
   borderopacity="1"
   objecttolerance="10"
   gridtolerance="10"
   guidetolerance="10"
   inkscape:pageopacity="0"
   inkscape:pageshadow="2"
   inkscape:window-width="1680"
   inkscape:window-height="932"
   id="namedview137"
   showgrid="false"
   inkscape:zoom="0.3337544"
   inkscape:cx="-713.78843"
   inkscape:cy="221.54966"
   inkscape:window-x="0"
   inkscape:window-y="27"
   inkscape:window-maximized="1"
   inkscape:current-layer="Layer_1" />
<style
   type="text/css"
   id="style2">
	.st0{fill:#F7B85C;}
	.st1{fill:#EEF2F4;}
	.st2{enable-background:new    ;}
	.st3{fill:#212552;}
	.st4{fill:#92D6E9;}
	
		.st5{opacity:0.3;fill:#0A1E2B;stroke:#0A1E2B;stroke-width:6;stroke-linecap:round;stroke-linejoin:round;stroke-miterlimit:10;enable-background:new    ;}
	.st6{fill:none;stroke:#212552;stroke-width:6;stroke-linecap:round;stroke-linejoin:round;stroke-miterlimit:10;}
	.st7{fill:#CBEDF9;}
	.st8{fill:#E8F9FF;}
	
		.st9{opacity:0.23;fill:#0A1E2B;stroke:#0A1E2B;stroke-width:6;stroke-linecap:round;stroke-linejoin:round;stroke-miterlimit:10;enable-background:new    ;}
	.st10{fill:none;stroke:#212552;stroke-width:10;stroke-linecap:round;stroke-linejoin:round;stroke-miterlimit:10;}
	.st11{fill:#FFEA9E;}
	.st12{fill:#EDC75D;}
	.st13{fill:none;stroke:#212552;stroke-width:8;stroke-linecap:round;stroke-linejoin:round;stroke-miterlimit:10;}
	.st14{fill:#5F9E71;stroke:#212552;stroke-width:6;stroke-linecap:round;stroke-linejoin:round;stroke-miterlimit:10;}
	.st15{fill:#90C49E;}
	.st16{fill:#FFFFFF;}
</style>

<g
   id="g89">
	<g
   id="g37">
		<g
   id="g7">
			
		</g>
		<g
   id="g11">
			
		</g>
		<g
   id="g15">
			
		</g>
		<g
   id="g19">
			
		</g>
		<g
   id="g23">
			
		</g>
		<g
   id="g27">
			
		</g>
		<g
   id="g31">
			
		</g>
		<g
   id="g35">
			
		</g>
	</g>
	<g
   class="st2"
   id="g49"
   style="enable-background:new">
		
		
		
		
		
	</g>
	<g
   class="st2"
   id="g71"
   style="enable-background:new">
		
		
		
		
		
		
		
		
		
		
	</g>
	<g
   class="st2"
   id="g83"
   style="enable-background:new">
		
		
		
		
		
	</g>
	<g
   id="g87">
		
	</g>
</g>



<ellipse
   id="XMLID_75_-2"
   class="st3"
   cx="481.77518"
   cy="865.974"
   rx="360.89246"
   ry="45.062145"
   style="fill:#212552;stroke-width:1.97640991" /><g
   transform="matrix(1.97641,0,0,1.97641,-506.42979,-488.85491)"
   id="XMLID_3_-2"><path
     id="XMLID_20_-8"
     class="st4"
     d="M 459.5,669.4 V 662 c 0,-3.3 -2.7,-6 -6,-6 h -66 c -3.3,0 -6,2.7 -6,6 v 22 c 0,3.3 2.7,6 6,6 h 43.9 c 4.8,0 9.4,-1.9 12.8,-5.3 z"
     inkscape:connector-curvature="0"
     style="fill:#92d6e9" /><path
     id="XMLID_50_-9"
     class="st5"
     d="m 453.5,656 h -66 c -3.3,0 -6,2.7 -6,6 v 20.4 h 65 l 13,-13 V 662 c 0,-3.3 -2.7,-6 -6,-6 z"
     inkscape:connector-curvature="0"
     style="opacity:0.3;fill:#0a1e2b;stroke:#0a1e2b;stroke-width:6;stroke-linecap:round;stroke-linejoin:round;stroke-miterlimit:10;enable-background:new" /><path
     id="XMLID_18_-7"
     class="st4"
     d="M 540.5,669.4 V 662 c 0,-3.3 2.7,-6 6,-6 h 66 c 3.3,0 6,2.7 6,6 v 22 c 0,3.3 -2.7,6 -6,6 h -43.9 c -4.8,0 -9.4,-1.9 -12.8,-5.3 z"
     inkscape:connector-curvature="0"
     style="fill:#92d6e9" /><path
     id="XMLID_51_-3"
     class="st5"
     d="m 612.5,656 h -66 c -3.3,0 -6,2.7 -6,6 v 7.4 l 13,13 h 65 V 662 c 0,-3.3 -2.7,-6 -6,-6 z"
     inkscape:connector-curvature="0"
     style="opacity:0.3;fill:#0a1e2b;stroke:#0a1e2b;stroke-width:6;stroke-linecap:round;stroke-linejoin:round;stroke-miterlimit:10;enable-background:new" /><path
     id="XMLID_27_-6"
     class="st6"
     d="M 459.5,669.4 V 662 c 0,-3.3 -2.7,-6 -6,-6 h -66 c -3.3,0 -6,2.7 -6,6 v 22 c 0,3.3 2.7,6 6,6 h 43.9 c 4.8,0 9.4,-1.9 12.8,-5.3 z"
     inkscape:connector-curvature="0"
     style="fill:none;stroke:#212552;stroke-width:6;stroke-linecap:round;stroke-linejoin:round;stroke-miterlimit:10" /><path
     id="XMLID_26_-1"
     class="st6"
     d="M 540.5,669.4 V 662 c 0,-3.3 2.7,-6 6,-6 h 66 c 3.3,0 6,2.7 6,6 v 22 c 0,3.3 -2.7,6 -6,6 h -43.9 c -4.8,0 -9.4,-1.9 -12.8,-5.3 z"
     inkscape:connector-curvature="0"
     style="fill:none;stroke:#212552;stroke-width:6;stroke-linecap:round;stroke-linejoin:round;stroke-miterlimit:10" /><path
     id="XMLID_2_-2"
     class="st7"
     d="M 630,669.5 H 370 c -22.1,0 -40,-17.9 -40,-40 v -260 c 0,-22.1 17.9,-40 40,-40 h 260 c 22.1,0 40,17.9 40,40 v 260 c 0,22.1 -17.9,40 -40,40 z"
     inkscape:connector-curvature="0"
     style="fill:#cbedf9" /><path
     id="XMLID_38_-9"
     class="st8"
     d="M 630,329.5 H 370 c -22.1,0 -40,17.9 -40,40 v 23 c 0,-22.1 17.9,-40 40,-40 h 260 c 22.1,0 40,17.9 40,40 v -23 c 0,-22.1 -17.9,-40 -40,-40 z"
     inkscape:connector-curvature="0"
     style="fill:#e8f9ff" /><polygon
     id="XMLID_58_-3"
     class="st9"
     points="568.7,329.1 594.3,329.1 577,365.5 "
     style="opacity:0.23000004;fill:#0a1e2b;stroke:#0a1e2b;stroke-width:6;stroke-linecap:round;stroke-linejoin:round;stroke-miterlimit:10;enable-background:new" /><path
     id="XMLID_45_-1"
     class="st4"
     d="M 630,646.5 H 370 c -22.1,0 -40,-17.9 -40,-40 v 23 c 0,22.1 17.9,40 40,40 h 260 c 22.1,0 40,-17.9 40,-40 v -23 c 0,22.1 -17.9,40 -40,40 z"
     inkscape:connector-curvature="0"
     style="fill:#92d6e9" /><path
     id="XMLID_19_-9"
     class="st6"
     d="M 630,669.5 H 370 c -22.1,0 -40,-17.9 -40,-40 v -260 c 0,-22.1 17.9,-40 40,-40 h 260 c 22.1,0 40,17.9 40,40 v 260 c 0,22.1 -17.9,40 -40,40 z"
     inkscape:connector-curvature="0"
     style="fill:none;stroke:#212552;stroke-width:6;stroke-linecap:round;stroke-linejoin:round;stroke-miterlimit:10" /><path
     id="XMLID_82_-4"
     class="st8"
     d="M 618,365.5 H 382 c -8.8,0 -16,7.2 -16,16 v 8 c 0,-8.8 7.2,-13 16,-13 h 236 c 8.8,0 16,4.2 16,13 v -8 c 0,-8.9 -7.2,-16 -16,-16 z"
     inkscape:connector-curvature="0"
     style="fill:#e8f9ff" /><path
     id="XMLID_83_-7"
     class="st4"
     d="M 618,620.5 H 382 c -8.8,0 -16,-7.2 -16,-16 v 13 c 0,8.8 7.2,16 16,16 h 236 c 8.8,0 16,-7.2 16,-16 v -13 c 0,8.8 -7.2,16 -16,16 z"
     inkscape:connector-curvature="0"
     style="fill:#92d6e9" /><path
     id="XMLID_7_-8"
     class="st6"
     d="m 382,633.5 c -8.8,0 -16,-7.2 -16,-16 v -236 c 0,-8.8 7.2,-16 16,-16 h 236 c 8.8,0 16,7.2 16,16 v 236 c 0,8.8 -7.2,16 -16,16 z"
     inkscape:connector-curvature="0"
     style="fill:none;stroke:#212552;stroke-width:6;stroke-linecap:round;stroke-linejoin:round;stroke-miterlimit:10" /><path
     id="XMLID_48_-4"
     class="st9"
     d="m 605.3,594.6 h -2 c -2.2,0 -4,-1.8 -4,-4 v -152 c 0,-2.2 1.8,-4 4,-4 h 2 c 2.2,0 4,1.8 4,4 v 152 c 0,2.2 -1.8,4 -4,4 z"
     inkscape:connector-curvature="0"
     style="opacity:0.23000004;fill:#0a1e2b;stroke:#0a1e2b;stroke-width:6;stroke-linecap:round;stroke-linejoin:round;stroke-miterlimit:10;enable-background:new" /><path
     id="XMLID_13_-5"
     class="st4"
     d="m 605.3,574.6 h -2 c -2.2,0 -4,-1.8 -4,-4 v -152 c 0,-2.2 1.8,-4 4,-4 h 2 c 2.2,0 4,1.8 4,4 v 152 c 0,2.2 -1.8,4 -4,4 z"
     inkscape:connector-curvature="0"
     style="fill:#92d6e9" /><path
     id="XMLID_14_-0"
     class="st6"
     d="m 605.3,574.6 h -2 c -2.2,0 -4,-1.8 -4,-4 v -152 c 0,-2.2 1.8,-4 4,-4 h 2 c 2.2,0 4,1.8 4,4 v 152 c 0,2.2 -1.8,4 -4,4 z"
     inkscape:connector-curvature="0"
     style="fill:none;stroke:#212552;stroke-width:6;stroke-linecap:round;stroke-linejoin:round;stroke-miterlimit:10" /><circle
     id="XMLID_39_-3"
     class="st9"
     cx="500"
     cy="507.5"
     r="65"
     style="opacity:0.23000004;fill:#0a1e2b;stroke:#0a1e2b;stroke-width:6;stroke-linecap:round;stroke-linejoin:round;stroke-miterlimit:10;enable-background:new" /><circle
     id="XMLID_32_-6"
     class="st7"
     cx="500"
     cy="499.5"
     r="65"
     style="fill:#cbedf9" /><circle
     id="XMLID_5_-1"
     class="st6"
     cx="500"
     cy="499.5"
     r="65"
     style="fill:none;stroke:#212552;stroke-width:6;stroke-linecap:round;stroke-linejoin:round;stroke-miterlimit:10" /><circle
     id="XMLID_34_-0"
     class="st4"
     cx="500"
     cy="499.5"
     r="54"
     style="fill:#92d6e9" /><line
     id="XMLID_10_-6"
     class="st10"
     x1="500"
     y1="458.5"
     x2="500"
     y2="540.5"
     style="fill:none;stroke:#212552;stroke-width:10;stroke-linecap:round;stroke-linejoin:round;stroke-miterlimit:10" /><line
     id="XMLID_8_-3"
     class="st10"
     x1="541"
     y1="499.5"
     x2="459"
     y2="499.5"
     style="fill:none;stroke:#212552;stroke-width:10;stroke-linecap:round;stroke-linejoin:round;stroke-miterlimit:10" /><line
     id="XMLID_12_-2"
     class="st10"
     x1="529"
     y1="470.5"
     x2="471"
     y2="528.5"
     style="fill:none;stroke:#212552;stroke-width:10;stroke-linecap:round;stroke-linejoin:round;stroke-miterlimit:10" /><line
     id="XMLID_11_-0"
     class="st10"
     x1="529"
     y1="528.5"
     x2="471"
     y2="470.5"
     style="fill:none;stroke:#212552;stroke-width:10;stroke-linecap:round;stroke-linejoin:round;stroke-miterlimit:10" /><path
     id="XMLID_37_-6"
     class="st5"
     d="m 500,547.2 v 0 c -13.8,0 -25,-11.2 -25,-25 v -25 h 50 v 25 c 0,13.8 -11.2,25 -25,25 z"
     inkscape:connector-curvature="0"
     style="opacity:0.3;fill:#0a1e2b;stroke:#0a1e2b;stroke-width:6;stroke-linecap:round;stroke-linejoin:round;stroke-miterlimit:10;enable-background:new" /><path
     id="XMLID_46_-1"
     class="st9"
     d="m 366,462 v 0 c -4.4,0 -8,-3.6 -8,-8 v -24 c 0,-4.4 3.6,-8 8,-8 v 0 c 4.4,0 8,3.6 8,8 v 24 c 0,4.4 -3.6,8 -8,8 z"
     inkscape:connector-curvature="0"
     style="opacity:0.23000004;fill:#0a1e2b;stroke:#0a1e2b;stroke-width:6;stroke-linecap:round;stroke-linejoin:round;stroke-miterlimit:10;enable-background:new" /><path
     id="XMLID_52_-5"
     class="st9"
     d="m 366,592.5 v 0 c -4.4,0 -8,-3.6 -8,-8 v -24 c 0,-4.4 3.6,-8 8,-8 v 0 c 4.4,0 8,3.6 8,8 v 24 c 0,4.4 -3.6,8 -8,8 z"
     inkscape:connector-curvature="0"
     style="opacity:0.23000004;fill:#0a1e2b;stroke:#0a1e2b;stroke-width:6;stroke-linecap:round;stroke-linejoin:round;stroke-miterlimit:10;enable-background:new" /><path
     id="XMLID_36_-5"
     class="st4"
     d="m 366,454 v 0 c -4.4,0 -8,-3.6 -8,-8 v -24 c 0,-4.4 3.6,-8 8,-8 v 0 c 4.4,0 8,3.6 8,8 v 24 c 0,4.4 -3.6,8 -8,8 z"
     inkscape:connector-curvature="0"
     style="fill:#92d6e9" /><path
     id="XMLID_33_-4"
     class="st4"
     d="m 366,585 v 0 c -4.4,0 -8,-3.6 -8,-8 v -24 c 0,-4.4 3.6,-8 8,-8 v 0 c 4.4,0 8,3.6 8,8 v 24 c 0,4.4 -3.6,8 -8,8 z"
     inkscape:connector-curvature="0"
     style="fill:#92d6e9" /><path
     id="XMLID_15_-7"
     class="st6"
     d="m 366,454 v 0 c -4.4,0 -8,-3.6 -8,-8 v -24 c 0,-4.4 3.6,-8 8,-8 v 0 c 4.4,0 8,3.6 8,8 v 24 c 0,4.4 -3.6,8 -8,8 z"
     inkscape:connector-curvature="0"
     style="fill:none;stroke:#212552;stroke-width:6;stroke-linecap:round;stroke-linejoin:round;stroke-miterlimit:10" /><path
     id="XMLID_17_-6"
     class="st6"
     d="m 366,585 v 0 c -4.4,0 -8,-3.6 -8,-8 v -24 c 0,-4.4 3.6,-8 8,-8 v 0 c 4.4,0 8,3.6 8,8 v 24 c 0,4.4 -3.6,8 -8,8 z"
     inkscape:connector-curvature="0"
     style="fill:none;stroke:#212552;stroke-width:6;stroke-linecap:round;stroke-linejoin:round;stroke-miterlimit:10" /><circle
     id="XMLID_29_-5"
     class="st11"
     cx="500"
     cy="499.5"
     r="25"
     style="fill:#ffea9e" /><circle
     id="XMLID_72_-6"
     class="st12"
     cx="500"
     cy="499.5"
     r="11.2"
     style="fill:#edc75d" /><circle
     id="XMLID_9_-9"
     class="st13"
     cx="500"
     cy="499.5"
     r="23"
     style="fill:none;stroke:#212552;stroke-width:8;stroke-linecap:round;stroke-linejoin:round;stroke-miterlimit:10" /><path
     id="XMLID_54_-3"
     class="st14"
     d="m 579,365.5 h -68.5 v -52.2 c 0,-4 3.2,-7.2 7.2,-7.2 h 54 c 4,0 7.2,3.2 7.2,7.2 z"
     inkscape:connector-curvature="0"
     style="fill:#5f9e71;stroke:#212552;stroke-width:6;stroke-linecap:round;stroke-linejoin:round;stroke-miterlimit:10" /><path
     id="XMLID_67_-7"
     class="st15"
     d="m 565.5,318.5 h -14.6 c 0,3.4 -2.7,6.1 -6.1,6.1 -3.4,0 -6.1,-2.7 -6.1,-6.1 H 524 c -1.7,0 -3.2,1.4 -3.2,3.2 v 43.8 h 47.8 v -43.8 c 0.1,-1.8 -1.4,-3.2 -3.1,-3.2 z"
     inkscape:connector-curvature="0"
     style="fill:#90c49e" /><ellipse
     id="XMLID_56_-4"
     class="st16"
     cx="544.79999"
     cy="354.79999"
     rx="15"
     ry="14.3"
     style="fill:#ffffff" /><path
     id="XMLID_53_-5"
     class="st6"
     d="m 579,365.5 h -68.5 v -52.2 c 0,-4 3.2,-7.2 7.2,-7.2 h 54 c 4,0 7.2,3.2 7.2,7.2 z"
     inkscape:connector-curvature="0"
     style="fill:none;stroke:#212552;stroke-width:6;stroke-linecap:round;stroke-linejoin:round;stroke-miterlimit:10" /></g><g
   transform="matrix(1.97641,0,0,1.97641,-506.42979,-488.85491)"
   id="XMLID_6_-2"><line
     id="XMLID_22_-5"
     class="st6"
     x1="698"
     y1="347.29999"
     x2="677.79999"
     y2="344.5"
     style="fill:none;stroke:#212552;stroke-width:6;stroke-linecap:round;stroke-linejoin:round;stroke-miterlimit:10" /><line
     id="XMLID_21_-4"
     class="st6"
     x1="649.90002"
     y1="315.60001"
     x2="646.90002"
     y2="295.39999"
     style="fill:none;stroke:#212552;stroke-width:6;stroke-linecap:round;stroke-linejoin:round;stroke-miterlimit:10" /><line
     id="XMLID_16_-7"
     class="st6"
     x1="669.90002"
     y1="322.89999"
     x2="684.40002"
     y2="308.39999"
     style="fill:none;stroke:#212552;stroke-width:6;stroke-linecap:round;stroke-linejoin:round;stroke-miterlimit:10" /></g></svg>